<?xml version="1.0" standalone="no"?>
<!DOCTYPE svg PUBLIC "-//W3C//DTD SVG 20010904//EN"
 "http://www.w3.org/TR/2001/REC-SVG-20010904/DTD/svg10.dtd">
<svg version="1.0" xmlns="http://www.w3.org/2000/svg"
 width="512.000000pt" height="512.000000pt" viewBox="0 0 512.000000 512.000000"
 preserveAspectRatio="xMidYMid meet">

<g transform="translate(0.000000,512.000000) scale(0.100000,-0.100000)"
fill="#000000" stroke="none">
<path d="M1197 4676 c-113 -41 -177 -145 -177 -287 l0 -39 -318 0 c-337 0
-384 -5 -474 -51 -102 -52 -193 -175 -218 -292 -7 -36 -10 -534 -8 -1652 l3
-1600 24 -58 c46 -115 152 -215 268 -253 78 -26 288 -26 383 0 195 53 352 181
440 361 56 113 70 177 70 323 l0 125 43 -40 c99 -91 215 -151 340 -177 114
-24 1858 -24 1975 0 105 21 242 89 320 159 l62 57 0 -124 c0 -146 14 -210 70
-323 88 -180 244 -308 441 -361 94 -26 304 -25 382 0 116 38 222 138 268 253
l24 58 3 1600 c2 1118 -1 1616 -8 1652 -25 117 -116 240 -218 292 -90 46 -137
51 -473 51 l-316 0 -6 75 c-10 118 -46 180 -136 233 l-46 27 -1340 2 c-1102 2
-1347 0 -1378 -11z m2685 -167 c42 -23 48 -63 48 -321 -1 -278 -9 -363 -44
-442 -35 -78 -121 -166 -204 -207 l-67 -34 -1055 0 -1055 0 -67 34 c-81 40
-169 128 -203 203 -36 78 -45 165 -45 441 0 261 6 302 47 326 26 15 2616 15
2645 0z m-2862 -1907 c0 -1416 -2 -1584 -16 -1633 -59 -199 -228 -343 -434
-370 -161 -21 -269 6 -335 84 -70 81 -66 -39 -63 1722 l3 1590 22 40 c32 59
85 105 145 126 47 16 89 18 366 19 l312 0 0 -1578z m3746 1563 c60 -18 127
-72 157 -129 l22 -41 3 -1590 c3 -1751 6 -1639 -59 -1718 -65 -79 -178 -109
-339 -88 -206 27 -375 171 -434 370 -14 49 -16 217 -16 1633 l0 1578 308 0
c243 0 319 -3 358 -15z m-3462 -746 c33 -21 96 -52 140 -67 l81 -27 1035 0
1035 0 80 27 c83 28 155 69 215 121 l35 31 3 -100 c2 -54 1 -479 0 -944 -3
-783 -5 -849 -22 -900 -61 -185 -218 -326 -400 -359 -82 -15 -1810 -15 -1892
0 -182 33 -339 174 -400 359 -17 51 -19 120 -22 999 l-3 943 28 -21 c15 -12
55 -40 87 -62z"/>
<path d="M379 2627 c-39 -30 -39 -37 -39 -717 l0 -662 29 -29 c31 -31 59 -36
94 -17 48 25 46 5 47 716 l0 673 -25 24 c-27 27 -79 33 -106 12z"/>
<path d="M369 991 c-26 -26 -29 -36 -29 -90 0 -78 13 -109 51 -125 40 -17 75
-10 99 22 16 19 20 40 20 99 0 65 -3 77 -25 98 -34 35 -78 33 -116 -4z"/>
<path d="M1840 2717 c-36 -18 -50 -53 -50 -127 -1 -97 -27 -120 -135 -120 -57
0 -69 -3 -90 -25 -30 -30 -33 -83 -6 -116 16 -19 30 -23 106 -28 110 -8 125
-21 125 -118 0 -76 18 -117 57 -130 74 -24 106 10 114 120 5 71 9 83 33 104
23 19 38 23 97 23 65 0 73 2 100 29 17 18 29 40 29 56 0 16 -12 38 -29 56 -27
27 -35 29 -100 29 -59 0 -74 4 -98 24 -25 22 -28 31 -31 105 -4 75 -6 83 -34
106 -33 28 -52 31 -88 12z"/>
<path d="M3193 2706 c-29 -24 -31 -31 -35 -107 -3 -74 -6 -83 -31 -105 -24
-21 -38 -24 -102 -24 -70 0 -75 -2 -99 -31 -34 -40 -33 -74 3 -110 27 -27 35
-29 100 -29 59 0 74 -4 97 -23 24 -21 28 -33 33 -104 8 -110 40 -144 114 -120
39 13 57 54 57 130 0 97 15 110 125 118 76 5 90 9 106 28 27 33 24 86 -6 116
-21 21 -33 25 -89 25 -113 0 -133 20 -138 138 -4 81 -20 107 -74 118 -24 4
-37 0 -61 -20z"/>
</g>
</svg>
