<?xml version="1.0" standalone="no"?>
<!DOCTYPE svg PUBLIC "-//W3C//DTD SVG 20010904//EN"
 "http://www.w3.org/TR/2001/REC-SVG-20010904/DTD/svg10.dtd">
<svg version="1.0" xmlns="http://www.w3.org/2000/svg"
 width="512.000000pt" height="512.000000pt" viewBox="0 0 512.000000 512.000000"
 preserveAspectRatio="xMidYMid meet">

<g transform="translate(0.000000,512.000000) scale(0.100000,-0.100000)"
fill="#000000" stroke="none">
<path d="M831 4374 c-159 -43 -280 -173 -311 -334 -5 -29 -10 -97 -10 -150 l0
-98 -132 -4 c-129 -3 -135 -4 -196 -37 -70 -38 -120 -92 -154 -167 l-23 -49 0
-1280 0 -1280 22 -47 c30 -66 105 -143 172 -175 l56 -28 279 -3 c233 -3 291
-1 355 13 130 29 250 100 333 196 l43 50 55 -25 c140 -64 79 -61 1240 -61
1161 0 1100 -3 1240 61 l54 25 49 -55 c62 -72 163 -138 262 -173 l80 -28 310
0 310 0 56 28 c67 32 142 109 172 175 l22 47 0 1280 0 1280 -26 56 c-33 69
-91 129 -161 166 -48 25 -64 28 -185 31 l-133 4 0 98 c0 53 -5 121 -10 150
-31 166 -167 305 -328 339 -38 8 -536 11 -1720 10 -1424 0 -1675 -2 -1721 -15z
m3471 -186 c25 -16 61 -45 78 -65 57 -70 61 -104 58 -476 l-3 -334 -27 -40
c-53 -80 114 -73 -1848 -73 -1962 0 -1795 -7 -1848 73 l-27 40 -3 334 c-3 378
1 407 64 481 35 42 74 67 124 83 14 4 781 7 1705 6 l1680 -2 47 -27z m-3790
-735 c3 -157 5 -172 30 -225 32 -69 97 -136 160 -167 64 -31 144 -41 331 -41
l157 0 -2 -907 -3 -908 -32 -67 c-57 -122 -174 -212 -308 -238 -39 -7 -148
-10 -312 -8 l-251 3 -39 31 c-79 63 -73 -50 -73 1328 0 1226 0 1230 21 1273
13 28 35 52 62 68 38 22 53 25 148 25 l107 0 4 -167z m4354 142 c28 -16 49
-39 63 -68 21 -43 21 -45 21 -1273 0 -1378 6 -1265 -73 -1328 l-39 -31 -251
-3 c-164 -2 -273 1 -312 8 -134 26 -251 116 -308 238 l-32 67 -3 906 -2 906
202 5 c179 5 210 8 261 27 73 29 149 102 185 178 25 54 27 69 30 226 l4 167
106 0 c94 0 110 -3 148 -25z m-3321 -828 l0 -254 30 -49 c38 -61 116 -110 189
-119 28 -3 407 -5 841 -3 l790 3 53 29 c28 16 64 44 78 63 53 69 55 85 52 344
l-3 239 87 0 87 0 4 -897 c2 -666 7 -909 16 -942 9 -36 9 -46 -1 -53 -29 -18
-121 -48 -180 -58 -86 -14 -1970 -14 -2056 0 -59 10 -151 40 -181 59 -12 8
-12 16 -1 52 11 35 14 231 17 942 l4 897 87 0 87 0 0 -253z m1842 231 c23 -21
23 -25 23 -229 l0 -207 -31 -26 -31 -26 -784 0 c-578 0 -791 3 -807 12 -44 23
-46 33 -47 247 0 197 1 206 22 228 l21 23 806 0 805 0 23 -22z"/>
<path d="M382 2673 c-7 -3 -19 -18 -27 -33 -13 -25 -15 -111 -15 -560 l0 -532
29 -29 c38 -37 82 -39 116 -4 l25 24 0 546 0 546 -25 24 c-23 24 -69 32 -103
18z"/>
<path d="M394 1310 c-39 -15 -54 -49 -54 -122 0 -55 4 -71 23 -92 34 -40 77
-43 115 -11 31 26 32 29 32 105 0 75 -1 79 -31 104 -32 27 -50 30 -85 16z"/>
</g>
</svg>
