<?xml version="1.0" standalone="no"?>
<!DOCTYPE svg PUBLIC "-//W3C//DTD SVG 20010904//EN"
 "http://www.w3.org/TR/2001/REC-SVG-20010904/DTD/svg10.dtd">
<svg version="1.0" xmlns="http://www.w3.org/2000/svg"
 width="512.000000pt" height="512.000000pt" viewBox="0 0 512.000000 512.000000"
 preserveAspectRatio="xMidYMid meet">

<g transform="translate(0.000000,512.000000) scale(0.100000,-0.100000)"
fill="#000000" stroke="none">
<path d="M320 4426 c-147 -41 -267 -162 -306 -310 -11 -42 -14 -312 -14 -1551
0 -1656 -4 -1563 63 -1674 42 -69 106 -126 187 -165 l65 -31 2245 0 2245 0 65
31 c81 39 145 96 187 165 67 111 63 19 63 1666 0 1067 -3 1507 -11 1545 -33
153 -158 283 -313 324 -72 19 -4406 19 -4476 0z m4485 -183 c47 -25 95 -74
121 -123 18 -34 19 -94 22 -1525 2 -1067 0 -1505 -8 -1542 -15 -70 -66 -134
-132 -167 l-52 -26 -2196 0 -2196 0 -52 26 c-29 14 -66 42 -82 62 -64 77 -61
-10 -58 1638 3 1440 4 1500 22 1534 36 68 97 120 166 141 14 4 1011 7 2215 6
l2190 -2 40 -22z"/>
<path d="M1226 4089 c-414 -61 -741 -354 -853 -764 l-28 -100 0 -660 0 -660
24 -89 c51 -194 145 -360 278 -492 122 -121 265 -204 448 -261 l90 -28 1110 0
c1108 0 1110 0 1191 22 195 52 356 146 489 285 93 96 142 167 195 281 73 155
100 303 100 549 l0 136 133 4 c121 3 137 6 185 31 182 95 244 317 137 487 -70
110 -178 160 -350 160 l-102 0 -7 110 c-8 133 -25 219 -65 329 -115 315 -372
546 -709 639 l-97 27 -1055 1 c-580 1 -1082 -2 -1114 -7z m2225 -186 c214 -60
391 -188 504 -361 87 -136 128 -266 141 -449 l7 -102 -294 -3 c-282 -3 -296
-4 -336 -25 -59 -32 -109 -87 -127 -141 -24 -69 -22 -303 3 -357 25 -56 67
-102 115 -128 39 -21 56 -22 336 -27 l295 -5 3 -120 c4 -143 -12 -293 -40
-384 -94 -306 -361 -538 -678 -591 -45 -7 -398 -10 -1120 -8 l-1055 3 -85 29
c-300 101 -501 312 -583 611 -22 79 -22 92 -22 720 0 631 1 641 23 720 93 337
369 584 707 634 33 5 526 8 1095 7 1026 -1 1036 -2 1111 -23z m1054 -1102 c48
-22 69 -44 91 -96 30 -73 -3 -163 -77 -204 -36 -20 -51 -21 -503 -21 l-467 0
-24 25 c-24 23 -25 30 -25 140 0 115 0 117 29 146 l29 29 454 0 c418 0 456 -2
493 -19z"/>
<path d="M856 2804 c-33 -10 -64 -31 -97 -64 -103 -103 -102 -256 3 -359 46
-46 82 -62 149 -68 78 -8 140 11 193 58 61 54 86 109 86 190 0 117 -68 213
-174 244 -61 18 -97 18 -160 -1z m123 -169 c75 -38 43 -155 -42 -155 -85 0
-113 119 -37 157 32 16 45 16 79 -2z"/>
</g>
</svg>
