<?xml version="1.0" standalone="no"?>
<!DOCTYPE svg PUBLIC "-//W3C//DTD SVG 20010904//EN"
 "http://www.w3.org/TR/2001/REC-SVG-20010904/DTD/svg10.dtd">
<svg version="1.0" xmlns="http://www.w3.org/2000/svg"
 width="512.000000pt" height="512.000000pt" viewBox="0 0 512.000000 512.000000"
 preserveAspectRatio="xMidYMid meet">

<g transform="translate(0.000000,512.000000) scale(0.100000,-0.100000)"
fill="#000000" stroke="none">
<path d="M415 5106 c-37 -16 -70 -52 -84 -89 -16 -42 -14 -231 3 -270 7 -18
25 -43 40 -56 l26 -24 0 -2232 c0 -2491 -6 -2286 71 -2364 77 -77 -96 -71
2089 -71 2185 0 2012 -6 2089 71 77 78 71 -127 71 2362 l0 2230 34 38 c42 46
49 77 44 212 -3 114 -12 137 -72 181 l-27 21 -2127 2 c-1757 2 -2132 0 -2157
-11z m4235 -221 l0 -85 -135 0 c-131 0 -137 -1 -160 -25 -32 -31 -32 -69 0
-100 22 -23 32 -25 120 -25 l95 0 0 -729 c0 -615 -2 -730 -14 -734 -8 -3 -103
-11 -212 -18 -513 -31 -974 47 -1718 291 l-277 91 45 40 c75 66 77 79 74 431
l-3 306 -30 44 c-36 50 -83 84 -136 98 -25 7 -251 10 -641 8 -596 -3 -603 -3
-643 -25 -47 -25 -85 -64 -111 -113 -17 -31 -19 -64 -22 -282 l-4 -246 -81 -7
c-45 -4 -119 -13 -164 -20 l-83 -12 0 439 0 438 1776 0 c1232 0 1781 3 1795
11 48 25 44 105 -7 128 -18 8 -511 11 -1834 11 l-1810 0 0 85 0 85 2090 0
2090 0 0 -85z m-2371 -570 c16 -8 31 -22 35 -30 3 -9 6 -138 6 -286 l0 -270
-25 -24 c-24 -25 -27 -25 -195 -25 -151 0 -184 3 -272 25 -236 60 -522 105
-673 105 -137 0 -125 -22 -125 229 0 231 5 255 50 278 19 10 158 13 598 13
484 0 577 -2 601 -15z m-839 -683 c284 -46 454 -92 1036 -281 779 -253 1057
-312 1559 -336 119 -6 476 9 518 21 15 5 17 -3 17 -62 l0 -67 -220 -294 -220
-293 -40 0 c-61 0 -233 28 -339 55 -325 83 -582 202 -1163 541 -620 361 -834
465 -1111 539 -120 32 -150 32 -176 -1 -49 -62 -13 -103 124 -140 143 -38 337
-115 511 -205 171 -87 186 -95 639 -359 518 -301 814 -437 1119 -515 226 -58
475 -85 512 -54 9 8 91 113 182 234 91 121 169 224 173 229 5 6 9 -526 9
-1213 l0 -1223 -29 -29 -29 -29 -1952 0 -1952 0 -29 29 -29 29 0 1546 0 1545
53 15 c102 30 203 47 302 52 55 3 115 7 133 10 67 10 94 76 50 123 -21 23 -24
24 -162 18 -122 -5 -228 -21 -348 -52 l-28 -7 0 80 0 80 29 7 c183 40 632 44
861 7z"/>
<path d="M2806 4465 c-54 -19 -85 -44 -121 -94 l-30 -43 -3 -301 c-2 -203 0
-315 8 -340 14 -49 74 -115 125 -138 37 -17 82 -19 656 -19 l615 0 52 26 c63
31 107 88 122 158 8 33 11 145 8 321 -3 240 -5 274 -22 305 -26 49 -64 88
-111 113 -40 22 -46 22 -650 24 -506 2 -617 0 -649 -12z m1256 -163 c23 -22
23 -25 23 -296 l0 -274 -24 -26 -24 -26 -594 0 -594 0 -24 25 -25 24 0 274 c0
286 1 291 45 316 14 7 193 10 607 8 l587 -2 23 -23z"/>
</g>
</svg>
