<?xml version="1.0" standalone="no"?>
<!DOCTYPE svg PUBLIC "-//W3C//DTD SVG 20010904//EN"
 "http://www.w3.org/TR/2001/REC-SVG-20010904/DTD/svg10.dtd">
<svg version="1.0" xmlns="http://www.w3.org/2000/svg"
 width="512.000000pt" height="512.000000pt" viewBox="0 0 512.000000 512.000000"
 preserveAspectRatio="xMidYMid meet">

<g transform="translate(0.000000,512.000000) scale(0.100000,-0.100000)"
fill="#000000" stroke="none">
<path d="M1125 5106 c-42 -18 -93 -79 -101 -120 -3 -19 -4 -93 -2 -163 3 -113
6 -135 30 -185 34 -73 102 -140 173 -169 l55 -23 0 -608 0 -608 -37 -19 c-47
-24 -85 -64 -112 -118 -20 -41 -21 -55 -21 -445 0 -402 0 -403 24 -453 23 -51
64 -93 117 -121 l29 -15 0 -777 0 -778 -54 -23 c-131 -54 -226 -217 -202 -345
8 -44 59 -104 103 -122 27 -12 279 -14 1430 -14 l1397 0 43 21 c30 14 52 35
69 66 24 39 26 52 22 112 -9 123 -86 230 -201 281 l-47 21 0 783 0 784 30 12
c16 7 46 30 66 52 70 78 69 68 69 513 0 445 1 435 -69 513 -20 22 -50 45 -66
52 l-30 12 0 613 0 614 53 24 c73 33 118 76 158 149 l34 63 3 155 c2 146 1
157 -20 194 -14 24 -40 48 -67 63 l-44 23 -1401 0 c-1135 -1 -1407 -3 -1431
-14z m2795 -263 c0 -127 -19 -172 -85 -210 l-40 -23 -1239 0 -1239 0 -43 25
c-65 38 -84 87 -84 213 l0 102 1365 0 1365 0 0 -107z m-2265 -420 c-32 -78
-35 -112 -35 -419 0 -292 1 -317 21 -369 29 -77 102 -154 181 -191 l63 -29
643 -3 c560 -2 651 -1 705 13 101 26 174 84 225 180 l27 50 3 336 c3 339 2
349 -33 432 -7 16 0 18 101 15 l109 -3 0 -595 0 -595 -1107 -3 -1108 -2 0 600
0 600 106 0 c97 0 106 -1 99 -17z m1585 -10 c20 -12 46 -40 58 -61 21 -39 22
-49 22 -341 0 -330 -1 -335 -60 -384 -17 -15 -47 -31 -68 -37 -51 -14 -1223
-14 -1274 0 -48 14 -97 55 -114 97 -20 47 -20 600 0 646 17 39 61 81 101 95
20 7 238 10 665 9 l635 -2 35 -22z m567 -1367 l28 -24 0 -377 0 -377 -28 -24
-28 -24 -1225 0 -1225 0 -24 25 -25 24 0 376 0 376 25 24 24 25 1225 0 1225 0
28 -24z m-142 -1766 l0 -765 -1107 -3 -1108 -2 0 770 0 770 1108 -2 1107 -3 0
-765z m170 -963 c42 -24 85 -86 85 -124 l0 -23 -1366 0 -1366 0 6 31 c10 51
44 96 89 118 42 21 44 21 1277 21 l1235 0 40 -23z"/>
</g>
</svg>
