<?xml version="1.0" standalone="no"?>
<!DOCTYPE svg PUBLIC "-//W3C//DTD SVG 20010904//EN"
 "http://www.w3.org/TR/2001/REC-SVG-20010904/DTD/svg10.dtd">
<svg version="1.0" xmlns="http://www.w3.org/2000/svg"
 width="512.000000pt" height="512.000000pt" viewBox="0 0 512.000000 512.000000"
 preserveAspectRatio="xMidYMid meet">

<g transform="translate(0.000000,512.000000) scale(0.100000,-0.100000)"
fill="#000000" stroke="none">
<path d="M2380 5114 c-167 -20 -217 -28 -299 -44 -610 -127 -1145 -497 -1491
-1031 -72 -113 -89 -172 -71 -254 26 -116 126 -195 246 -195 118 0 164 31 261
175 84 125 102 150 107 144 2 -2 16 -125 30 -274 l27 -270 -59 -60 c-276 -284
-469 -696 -521 -1115 -15 -121 -12 -367 5 -490 93 -649 481 -1194 1058 -1485
478 -240 1003 -280 1502 -114 658 219 1148 762 1299 1440 138 623 -42 1285
-479 1757 l-67 72 26 259 c14 142 26 264 26 271 0 25 33 -14 107 -127 95 -146
151 -185 264 -185 140 0 252 112 252 252 0 68 -21 119 -102 239 -372 553 -942
915 -1601 1016 -100 15 -445 28 -520 19z m381 -174 c507 -51 965 -267 1320
-620 175 -174 349 -412 351 -480 1 -44 -35 -80 -82 -80 -20 0 -43 6 -52 13 -8
6 -45 57 -82 113 -245 373 -612 652 -1047 795 -403 132 -834 129 -1248 -10
-403 -135 -771 -414 -1003 -761 -94 -141 -103 -150 -150 -150 -42 0 -74 24
-84 64 -14 57 156 297 345 487 333 334 749 545 1211 613 183 27 355 32 521 16z
m-291 -465 c0 -69 -3 -125 -7 -125 -5 0 -51 -5 -103 -10 -352 -37 -698 -170
-970 -374 -52 -40 -76 -53 -81 -44 -3 7 -10 49 -13 93 l-7 80 76 65 c209 178
474 319 728 386 97 26 256 52 320 53 l57 1 0 -125z m450 95 c306 -62 639 -229
847 -425 l64 -60 -10 -84 c-6 -46 -12 -86 -14 -88 -3 -2 -37 20 -76 50 -223
168 -513 295 -796 351 -68 14 -240 35 -282 36 -10 0 -13 32 -13 126 l0 127 88
-6 c48 -3 134 -15 192 -27z m-450 -520 l0 -130 -41 0 c-64 0 -243 -29 -354
-56 -210 -53 -426 -151 -614 -278 -124 -84 -116 -86 -126 34 l-6 75 83 69
c290 241 653 386 1041 415 15 1 17 -11 17 -129z m355 109 c320 -42 690 -214
918 -428 46 -43 48 -46 42 -90 -3 -25 -8 -65 -11 -88 l-5 -42 -108 73 c-295
198 -629 314 -981 339 l-35 2 -3 114 c-1 63 0 121 2 128 6 13 19 13 181 -8z
m80 -439 c545 -110 1005 -460 1254 -955 118 -235 175 -460 188 -735 31 -699
-367 -1364 -1002 -1674 -504 -247 -1084 -243 -1590 9 -341 170 -624 454 -796
798 -297 591 -244 1289 141 1839 83 119 297 333 420 420 195 138 452 249 690
298 204 42 489 42 695 0z"/>
</g>
</svg>
