<?xml version="1.0" standalone="no"?>
<!DOCTYPE svg PUBLIC "-//W3C//DTD SVG 20010904//EN"
 "http://www.w3.org/TR/2001/REC-SVG-20010904/DTD/svg10.dtd">
<svg version="1.0" xmlns="http://www.w3.org/2000/svg"
 width="512.000000pt" height="512.000000pt" viewBox="0 0 512.000000 512.000000"
 preserveAspectRatio="xMidYMid meet">

<g transform="translate(0.000000,512.000000) scale(0.100000,-0.100000)"
fill="#000000" stroke="none">
<path d="M190 4471 c-69 -21 -130 -73 -166 -141 -18 -34 -19 -83 -19 -1215 l0
-1180 21 -40 c30 -56 71 -94 129 -121 49 -23 55 -24 373 -24 l322 0 0 -219 0
-218 -65 -32 c-70 -35 -120 -86 -157 -160 -19 -38 -23 -62 -23 -141 0 -89 2
-99 34 -158 38 -70 92 -120 167 -154 l49 -23 765 0 765 0 67 33 c81 40 139
102 169 181 31 83 24 205 -16 279 -36 66 -110 135 -170 158 l-45 17 0 219 0
220 128 -3 c113 -4 133 -7 177 -30 64 -32 105 -87 144 -191 18 -46 43 -114 57
-151 56 -147 154 -248 281 -287 62 -19 93 -20 748 -20 649 0 686 1 746 19 108
34 197 108 247 208 28 54 178 456 192 513 7 32 10 410 8 1265 -3 1168 -4 1222
-22 1255 -26 49 -74 98 -121 123 l-40 22 -2360 2 c-1298 1 -2371 -2 -2385 -6z
m4731 -190 l29 -30 -2 -1208 -3 -1208 -83 -219 c-46 -120 -89 -231 -97 -246
-21 -41 -99 -105 -143 -118 -56 -17 -1338 -17 -1394 0 -45 13 -122 77 -143
118 -8 15 -37 90 -66 166 -74 197 -120 263 -231 328 -99 58 -55 56 -1361 56
l-1199 0 -29 29 -29 29 0 1137 0 1137 29 29 29 29 2332 0 2332 0 29 -29z
m-2701 -2746 l0 -215 -597 2 -598 3 -3 213 -2 212 600 0 600 0 0 -215z m177
-411 c15 -11 39 -36 51 -55 20 -29 23 -44 20 -94 -5 -74 -33 -119 -92 -146
-39 -18 -80 -19 -755 -19 -705 0 -715 0 -758 21 -92 44 -122 171 -60 252 54
70 10 67 829 64 730 -2 737 -2 765 -23z"/>
<path d="M479 4022 c-60 -31 -111 -96 -130 -165 -18 -66 -8 -294 15 -337 25
-49 74 -98 121 -123 l40 -22 1095 0 1095 0 41 22 c50 27 97 75 121 122 22 44
31 284 13 349 -16 60 -68 122 -129 154 l-53 28 -1088 0 -1088 0 -53 -28z
m2226 -167 c24 -23 25 -30 25 -140 0 -115 0 -117 -29 -146 l-29 -29 -1051 0
-1050 0 -28 24 c-27 23 -28 29 -31 126 -4 117 0 142 30 170 22 20 31 20 1080
20 l1059 0 24 -25z"/>
<path d="M680 3088 c-18 -13 -43 -36 -54 -51 -20 -27 -21 -42 -24 -339 l-3
-310 25 -43 c17 -29 40 -50 69 -64 43 -21 50 -21 928 -21 847 0 886 1 926 19
26 12 52 35 70 62 l28 42 3 256 c2 140 1 279 -3 307 -7 61 -36 109 -84 141
l-34 23 -907 0 -907 0 -33 -22z m1790 -403 l0 -255 -850 0 -850 0 0 255 0 255
850 0 850 0 0 -255z"/>
</g>
</svg>
