<?xml version="1.0" standalone="no"?>
<!DOCTYPE svg PUBLIC "-//W3C//DTD SVG 20010904//EN"
 "http://www.w3.org/TR/2001/REC-SVG-20010904/DTD/svg10.dtd">
<svg version="1.0" xmlns="http://www.w3.org/2000/svg"
 width="512.000000pt" height="512.000000pt" viewBox="0 0 512.000000 512.000000"
 preserveAspectRatio="xMidYMid meet">

<g transform="translate(0.000000,512.000000) scale(0.100000,-0.100000)"
fill="#000000" stroke="none">
<path d="M320 5106 c-147 -41 -267 -162 -306 -310 -20 -76 -20 -4396 0 -4472
41 -155 171 -280 324 -313 75 -16 4368 -16 4444 0 157 33 293 170 327 327 16
75 16 4369 0 4444 -33 153 -158 283 -313 324 -72 19 -4406 19 -4476 0z m960
-291 c0 -176 13 -205 91 -205 18 0 39 10 54 25 24 23 25 28 25 170 l0 145 510
0 510 0 0 -385 0 -385 -139 0 c-133 0 -141 -1 -167 -24 -21 -18 -28 -32 -28
-61 0 -29 7 -43 28 -61 26 -23 34 -24 167 -24 l139 0 0 -425 0 -425 -510 0
-510 0 0 141 0 141 -29 29 c-38 38 -74 38 -112 0 l-29 -29 0 -141 0 -141 -555
0 -555 0 0 425 0 425 136 0 c136 0 166 6 191 39 21 27 15 79 -12 106 -23 24
-28 25 -170 25 l-146 0 3 293 c3 262 5 296 22 327 36 68 97 120 166 141 14 4
226 8 473 8 l447 1 0 -135z m2468 3 l-3 -132 -50 -11 c-301 -71 -510 -351
-492 -656 12 -197 114 -381 270 -488 58 -39 158 -86 207 -96 75 -15 70 -3 70
-146 l0 -129 -550 0 -550 0 0 425 0 425 139 0 c133 0 141 1 167 24 39 33 39
89 0 122 -26 23 -34 24 -167 24 l-139 0 0 385 0 385 550 0 551 0 -3 -132z
m1057 105 c47 -25 95 -74 121 -123 17 -31 19 -65 22 -327 l3 -293 -146 0
c-142 0 -147 -1 -170 -25 -27 -27 -33 -79 -12 -106 25 -33 55 -39 191 -39
l136 0 0 -425 0 -425 -510 0 -510 0 0 129 0 129 66 16 c269 68 464 304 481
585 7 112 -14 211 -68 321 -79 160 -246 295 -414 333 l-60 14 -3 132 -3 132
418 -3 c407 -3 419 -4 458 -25z m-856 -414 c179 -41 325 -201 354 -390 22
-144 -32 -297 -142 -402 -273 -261 -719 -110 -783 264 -40 230 123 475 349
528 52 12 169 13 222 0z m-2669 -1651 l0 -133 -68 -16 c-118 -29 -198 -75
-293 -169 -94 -92 -144 -178 -174 -295 -19 -76 -19 -234 0 -310 57 -224 255
-418 473 -464 l62 -14 0 -133 0 -134 -552 2 -553 3 -3 428 -2 427 145 0 c142
0 147 1 170 25 27 27 33 79 12 106 -25 33 -55 39 -191 39 l-136 0 0 385 0 385
555 0 555 0 0 -132z m1190 -252 l0 -385 -145 -3 c-134 -3 -146 -5 -167 -25
-33 -33 -30 -89 6 -119 26 -23 34 -24 167 -24 l139 0 0 -430 0 -430 -507 2
-508 3 -3 131 -3 131 60 12 c163 32 350 178 424 331 50 103 68 178 68 290 0
111 -18 187 -66 285 -81 166 -234 290 -412 333 l-73 17 0 133 0 132 510 0 510
0 0 -384z m1282 240 c3 -137 4 -146 27 -170 18 -19 35 -26 61 -26 26 0 43 7
61 26 23 24 24 33 27 170 l4 144 509 0 509 0 0 -385 0 -385 -136 0 c-136 0
-166 -6 -191 -39 -21 -27 -15 -79 12 -106 23 -24 28 -25 170 -25 l145 0 -2
-427 -3 -428 -507 -3 -508 -2 0 122 c0 157 -10 195 -56 214 -29 12 -39 12 -68
0 -46 -19 -56 -57 -56 -213 l0 -123 -550 0 -550 0 0 430 0 430 139 0 c133 0
141 1 167 24 36 30 39 86 6 119 -21 20 -33 22 -167 25 l-145 3 0 385 0 384
549 0 549 0 4 -144z m-2290 -297 c81 -18 155 -57 220 -117 102 -95 148 -200
148 -338 0 -188 -100 -348 -265 -426 -312 -145 -665 78 -665 421 0 139 48 250
149 343 115 107 263 149 413 117z m3486 -1861 c-3 -302 -5 -336 -22 -368 -26
-49 -74 -98 -121 -123 l-40 -22 -2205 0 -2205 0 -40 22 c-47 25 -95 74 -121
123 -17 32 -19 66 -22 368 l-3 332 2391 0 2391 0 -3 -332z"/>
<path d="M1270 4424 c-232 -63 -353 -316 -251 -530 50 -106 118 -166 229 -203
193 -65 406 38 478 233 30 80 26 205 -8 279 -54 116 -142 190 -263 222 -72 18
-113 18 -185 -1z m156 -169 c52 -15 105 -59 130 -107 57 -111 -4 -256 -125
-297 -52 -17 -101 -13 -158 14 -90 41 -139 148 -113 244 16 60 81 127 139 145
60 19 68 19 127 1z"/>
<path d="M3713 2452 c-101 -36 -170 -99 -221 -202 -24 -49 -27 -66 -27 -160 0
-95 3 -110 28 -163 37 -74 110 -147 184 -184 53 -25 68 -28 163 -28 95 0 110
3 163 28 74 37 147 110 184 184 25 53 28 68 28 163 0 96 -3 110 -29 165 -38
77 -111 149 -184 183 -76 35 -211 42 -289 14z m248 -187 c64 -45 91 -104 87
-185 -5 -82 -38 -136 -107 -174 -96 -51 -216 -23 -278 67 -25 36 -28 49 -28
118 0 70 3 81 30 120 45 64 104 91 187 87 55 -3 75 -9 109 -33z"/>
<path d="M745 826 c-91 -43 -145 -127 -144 -226 0 -102 44 -177 131 -226 45
-25 64 -29 123 -28 80 0 131 22 181 76 89 94 96 224 19 329 -68 94 -201 127
-310 75z m156 -159 c21 -16 39 -51 39 -76 0 -29 -40 -70 -76 -77 -44 -8 -94
35 -94 82 0 65 81 109 131 71z"/>
<path d="M1422 824 c-188 -94 -186 -356 3 -457 56 -30 164 -30 221 0 87 46
135 120 142 219 13 192 -192 325 -366 238z m173 -169 c35 -34 33 -78 -5 -117
-26 -25 -36 -29 -63 -24 -36 7 -77 47 -77 77 0 26 26 76 42 82 34 14 80 6 103
-18z"/>
<path d="M2115 831 c-117 -54 -176 -183 -140 -306 29 -102 139 -185 245 -185
47 0 124 29 162 60 83 68 114 210 67 307 -26 54 -96 116 -147 131 -58 18 -141
14 -187 -7z m160 -176 c41 -40 33 -105 -17 -131 -58 -30 -122 7 -122 71 0 76
87 113 139 60z"/>
<path d="M2812 837 c-46 -14 -117 -80 -141 -130 -48 -98 -15 -240 70 -308 105
-83 244 -75 340 21 160 160 49 432 -176 429 -33 -1 -75 -6 -93 -12z m145 -179
c31 -34 36 -63 18 -98 -41 -78 -155 -52 -155 35 0 74 90 114 137 63z"/>
</g>
</svg>
