<?xml version="1.0" standalone="no"?>
<!DOCTYPE svg PUBLIC "-//W3C//DTD SVG 20010904//EN"
 "http://www.w3.org/TR/2001/REC-SVG-20010904/DTD/svg10.dtd">
<svg version="1.0" xmlns="http://www.w3.org/2000/svg"
 width="512.000000pt" height="512.000000pt" viewBox="0 0 512.000000 512.000000"
 preserveAspectRatio="xMidYMid meet">

<g transform="translate(0.000000,512.000000) scale(0.100000,-0.100000)"
fill="#000000" stroke="none">
<path d="M320 5106 c-147 -41 -267 -162 -306 -310 -20 -76 -20 -4396 0 -4472
41 -155 171 -280 324 -313 75 -16 4368 -16 4444 0 157 33 293 170 327 327 16
75 16 4369 0 4444 -33 153 -158 283 -313 324 -72 19 -4406 19 -4476 0z m4485
-183 c47 -25 95 -74 121 -123 18 -34 19 -98 19 -1820 l0 -1785 -1385 -5 c-762
-3 -1390 -8 -1397 -13 -6 -4 -17 -23 -23 -42 -15 -45 7 -88 51 -104 23 -8 423
-11 1396 -11 l1364 0 -3 -332 c-3 -302 -5 -336 -22 -368 -26 -49 -74 -98 -121
-123 l-40 -22 -2205 0 c-2131 0 -2206 1 -2240 19 -49 26 -98 74 -123 121 -21
38 -22 54 -25 373 l-3 332 171 0 c194 0 229 8 249 59 11 25 11 37 1 61 -7 17
-18 34 -24 38 -6 4 -96 9 -201 12 l-190 5 0 1785 c0 1722 1 1786 19 1820 36
68 97 120 166 141 14 4 1011 7 2215 6 l2190 -2 40 -22z"/>
<path d="M369 4751 c-31 -31 -36 -59 -17 -94 20 -39 40 -46 120 -47 74 0 77 1
103 32 32 38 29 81 -11 116 -21 18 -37 22 -95 22 -65 0 -73 -2 -100 -29z"/>
<path d="M815 4768 c-51 -29 -61 -93 -20 -133 l24 -25 840 0 c462 0 847 3 856
6 19 8 45 55 45 84 0 12 -13 35 -29 51 l-29 29 -834 0 c-608 -1 -838 -4 -853
-12z"/>
<path d="M3597 4765 c-393 -75 -684 -359 -762 -744 -23 -114 -16 -324 14 -429
96 -332 355 -581 687 -664 131 -32 323 -30 455 5 344 91 609 368 680 712 119
575 -299 1108 -886 1130 -72 3 -137 -1 -188 -10z m354 -184 c271 -70 483 -288
550 -566 69 -287 -37 -588 -272 -777 -138 -110 -286 -161 -474 -161 -143 -1
-211 15 -340 78 -188 92 -319 242 -392 450 -25 74 -27 91 -28 235 0 148 2 159
31 243 85 237 257 407 494 487 130 44 288 48 431 11z"/>
<path d="M3663 4255 c-128 -28 -236 -116 -296 -242 -30 -63 -32 -76 -32 -173
0 -97 2 -110 32 -173 159 -336 617 -336 776 0 30 63 32 76 32 173 0 97 -2 110
-32 173 -61 128 -168 214 -300 242 -81 17 -99 17 -180 0z m193 -180 c45 -18
102 -72 127 -119 30 -58 30 -174 0 -232 -26 -48 -83 -101 -132 -121 -46 -20
-146 -20 -192 0 -92 38 -159 137 -159 237 0 87 39 156 123 220 50 38 161 45
233 15z"/>
<path d="M1237 4335 c-251 -69 -412 -312 -377 -567 20 -148 120 -295 254 -373
104 -61 259 -81 379 -50 192 50 344 217 377 417 42 249 -127 508 -375 573 -71
18 -192 18 -258 0z m265 -183 c26 -11 69 -41 96 -66 142 -133 142 -359 0 -492
-74 -69 -125 -89 -233 -89 -80 0 -97 3 -148 29 -275 140 -244 536 48 633 58
19 179 11 237 -15z"/>
<path d="M1290 2639 c-193 -21 -373 -151 -459 -332 -46 -96 -61 -161 -61 -260
1 -282 198 -523 477 -582 93 -20 166 -19 257 5 271 69 456 302 456 574 -1 364
-306 635 -670 595z m261 -211 c143 -71 227 -196 236 -351 14 -223 -132 -408
-355 -449 -236 -44 -472 145 -489 390 -14 199 98 366 292 434 37 14 74 18 146
16 87 -3 102 -6 170 -40z"/>
<path d="M3610 2449 c-165 -65 -267 -202 -277 -372 -11 -177 77 -331 233 -408
166 -82 347 -54 483 76 213 203 158 551 -106 682 -71 35 -83 38 -177 40 -84 3
-110 -1 -156 -18z m261 -177 c95 -50 147 -144 136 -248 -23 -220 -291 -310
-439 -146 -115 128 -77 327 77 398 73 34 156 33 226 -4z"/>
<path d="M745 826 c-91 -43 -145 -127 -144 -226 0 -102 44 -177 131 -226 45
-25 64 -29 123 -28 80 0 131 22 181 76 89 94 96 224 19 329 -68 94 -201 127
-310 75z m156 -159 c21 -16 39 -51 39 -76 0 -29 -40 -70 -76 -77 -44 -8 -94
35 -94 82 0 65 81 109 131 71z"/>
<path d="M1422 824 c-188 -94 -186 -356 3 -457 56 -30 164 -30 221 0 87 46
135 120 142 219 13 192 -192 325 -366 238z m173 -169 c35 -34 33 -78 -5 -117
-26 -25 -36 -29 -63 -24 -36 7 -77 47 -77 77 0 26 26 76 42 82 34 14 80 6 103
-18z"/>
<path d="M2115 831 c-117 -54 -176 -183 -140 -306 29 -102 139 -185 245 -185
47 0 124 29 162 60 83 68 114 210 67 307 -26 54 -96 116 -147 131 -58 18 -141
14 -187 -7z m160 -176 c41 -40 33 -105 -17 -131 -58 -30 -122 7 -122 71 0 76
87 113 139 60z"/>
<path d="M2812 837 c-46 -14 -117 -80 -141 -130 -48 -98 -15 -240 70 -308 105
-83 244 -75 340 21 160 160 49 432 -176 429 -33 -1 -75 -6 -93 -12z m145 -179
c31 -34 36 -63 18 -98 -41 -78 -155 -52 -155 35 0 74 90 114 137 63z"/>
</g>
</svg>
