<?xml version="1.0" standalone="no"?>
<!DOCTYPE svg PUBLIC "-//W3C//DTD SVG 20010904//EN"
 "http://www.w3.org/TR/2001/REC-SVG-20010904/DTD/svg10.dtd">
<svg version="1.0" xmlns="http://www.w3.org/2000/svg"
 width="512.000000pt" height="512.000000pt" viewBox="0 0 512.000000 512.000000"
 preserveAspectRatio="xMidYMid meet">

<g transform="translate(0.000000,512.000000) scale(0.100000,-0.100000)"
fill="#000000" stroke="none">
<path d="M2210 4564 c-30 -2 -134 -8 -230 -14 -96 -6 -255 -20 -354 -30 -216
-24 -1113 -147 -1176 -162 -151 -35 -313 -166 -383 -308 -70 -141 -67 -58 -67
-1665 0 -1586 -3 -1513 57 -1615 40 -67 115 -135 191 -172 l67 -33 2210 -3
c1648 -2 2224 0 2265 8 151 32 283 165 319 321 7 29 11 553 11 1494 0 1607 3
1524 -66 1664 -44 88 -150 201 -234 248 -109 61 -106 61 -855 163 -417 57
-490 65 -749 86 -177 14 -876 27 -1006 18z m935 -184 c304 -23 546 -52 1231
-149 220 -32 281 -44 327 -65 72 -34 143 -99 184 -167 67 -112 64 -23 61
-1630 l-3 -1454 -29 -53 c-33 -59 -91 -107 -147 -122 -24 -7 -812 -9 -2231 -8
l-2195 3 -54 36 c-38 25 -63 52 -84 90 l-30 54 -3 1454 c-3 1607 -6 1518 61
1630 63 105 174 180 299 201 97 16 907 127 1053 144 169 20 363 36 555 46 194
11 819 4 1005 -10z"/>
<path d="M1905 3945 c-52 -51 -16 -145 55 -145 40 0 90 47 90 85 0 16 -12 38
-29 56 -38 37 -82 39 -116 4z"/>
<path d="M2453 3952 c-127 -45 -212 -147 -229 -276 l-7 -46 -846 -2 -846 -3
-41 -22 c-22 -12 -57 -40 -77 -62 -71 -78 -68 -15 -65 -1302 l3 -1154 22 -41
c29 -54 101 -117 151 -132 57 -17 4027 -17 4084 0 50 15 122 78 151 132 l22
41 3 1154 c3 1287 6 1224 -65 1302 -20 22 -55 50 -77 62 l-41 22 -846 3 -846
2 -7 48 c-15 110 -92 213 -194 260 -75 34 -177 40 -249 14z m181 -172 c23 -11
52 -36 66 -57 l25 -36 3 -284 3 -283 -171 0 -170 0 0 270 c0 289 3 314 51 360
55 52 126 63 193 30z m-412 -523 c3 -204 3 -204 30 -239 48 -63 70 -68 308
-68 238 0 260 5 308 68 27 35 27 35 30 239 l3 203 829 -2 829 -3 23 -23 23
-23 3 -1140 2 -1140 -29 -30 -29 -29 -1992 0 -1992 0 -29 29 -29 30 2 1141 3
1142 28 24 28 24 824 0 824 0 3 -203z"/>
<path d="M705 3168 c-21 -25 -25 -38 -21 -62 13 -61 70 -90 124 -62 76 39 45
156 -42 156 -26 0 -40 -7 -61 -32z"/>
<path d="M4295 3175 c-41 -40 -33 -105 17 -131 54 -28 111 1 124 62 4 24 0 37
-21 62 -34 41 -84 44 -120 7z"/>
<path d="M1270 3021 c-125 -38 -215 -140 -240 -270 -16 -84 -13 -922 4 -992
26 -112 101 -200 206 -240 49 -18 91 -19 1320 -19 1252 0 1270 0 1324 20 106
40 183 136 205 254 14 77 15 903 1 977 -21 109 -84 194 -182 246 l-53 28 -383
3 -382 3 -25 -25 c-35 -35 -33 -79 4 -117 l29 -29 354 0 c340 0 354 -1 387
-21 91 -55 93 -68 89 -610 l-3 -445 -27 -41 c-52 -79 53 -73 -1338 -73 -1391
0 -1286 -6 -1338 73 l-27 41 -3 445 c-4 542 -2 555 89 610 33 20 47 21 387 21
l354 0 29 29 c37 38 39 82 4 116 l-24 25 -368 -1 c-202 0 -379 -4 -393 -8z"/>
<path d="M714 2836 c-63 -53 -16 -155 65 -142 45 7 71 38 71 83 0 72 -80 108
-136 59z"/>
<path d="M4295 2835 c-50 -49 -24 -130 46 -141 81 -13 128 89 65 142 -36 31
-80 31 -111 -1z"/>
<path d="M1395 2665 c-52 -51 -16 -145 54 -145 46 0 83 37 83 85 0 75 -85 113
-137 60z"/>
<path d="M1735 2665 c-52 -51 -16 -145 54 -145 46 0 85 39 85 85 0 74 -88 112
-139 60z"/>
<path d="M2490 2681 c-75 -24 -139 -81 -167 -150 -20 -47 -20 -146 -1 -192 74
-172 305 -213 427 -74 47 53 64 100 64 170 -1 140 -99 243 -238 251 -33 2 -71
0 -85 -5z m125 -186 c38 -37 37 -88 -1 -122 -80 -73 -186 46 -109 122 15 16
36 25 55 25 19 0 40 -9 55 -25z"/>
<path d="M3274 2666 c-58 -49 -20 -146 57 -146 43 0 79 39 79 85 0 74 -80 110
-136 61z"/>
<path d="M3614 2666 c-58 -49 -20 -146 57 -146 43 0 79 39 79 85 0 74 -80 110
-136 61z"/>
<path d="M715 2497 c-59 -50 -22 -147 56 -147 42 0 79 39 79 83 0 45 -26 76
-71 83 -28 5 -41 1 -64 -19z"/>
<path d="M4313 2510 c-48 -19 -58 -95 -18 -135 51 -52 139 -14 139 60 0 63
-59 100 -121 75z"/>
<path d="M1413 2340 c-50 -20 -60 -105 -17 -139 71 -56 164 12 130 94 -21 50
-61 66 -113 45z"/>
<path d="M1755 2338 c-52 -28 -62 -92 -20 -133 31 -32 75 -32 111 -1 73 62 -7
181 -91 134z"/>
<path d="M3276 2328 c-15 -13 -29 -37 -32 -55 -5 -27 -1 -37 24 -63 39 -38 83
-40 117 -5 41 40 33 105 -16 130 -39 21 -64 19 -93 -7z"/>
<path d="M3616 2328 c-40 -34 -41 -91 -2 -124 56 -49 136 -14 136 59 0 45 -26
76 -71 83 -28 5 -41 1 -63 -18z"/>
<path d="M735 2170 c-28 -11 -44 -31 -51 -67 -9 -43 35 -93 82 -93 86 0 118
117 43 155 -31 17 -45 18 -74 5z"/>
<path d="M4315 2169 c-77 -44 -50 -159 39 -159 47 0 91 50 82 94 -4 17 -14 39
-24 48 -22 23 -72 31 -97 17z"/>
<path d="M1415 1998 c-32 -17 -45 -39 -45 -79 0 -94 131 -107 163 -17 10 28
-13 78 -44 93 -33 18 -47 18 -74 3z"/>
<path d="M1755 1998 c-77 -45 -49 -158 39 -158 47 0 91 50 82 94 -4 17 -14 39
-24 48 -23 23 -72 31 -97 16z"/>
<path d="M3295 2000 c-28 -11 -44 -31 -51 -67 -9 -43 35 -93 82 -93 89 0 116
116 37 158 -25 14 -40 14 -68 2z"/>
<path d="M3629 1995 c-29 -16 -52 -66 -42 -93 3 -9 15 -27 26 -39 44 -49 137
-14 137 52 0 47 -8 64 -41 80 -34 18 -47 18 -80 0z"/>
<path d="M730 1827 c-31 -16 -54 -61 -46 -92 24 -95 166 -79 166 18 0 59 -68
101 -120 74z"/>
<path d="M4301 1814 c-60 -50 -26 -144 51 -144 86 1 117 106 45 151 -42 25
-60 24 -96 -7z"/>
<path d="M733 1485 c-41 -17 -60 -64 -43 -105 35 -84 160 -60 160 31 0 60 -60
98 -117 74z"/>
<path d="M4335 1492 c-37 -7 -65 -43 -65 -82 0 -97 142 -111 166 -16 13 52
-46 109 -101 98z"/>
<path d="M3099 3941 c-17 -18 -29 -40 -29 -56 0 -38 50 -85 90 -85 44 0 80 39
80 85 0 79 -84 112 -141 56z"/>
</g>
</svg>
