<?xml version="1.0" standalone="no"?>
<!DOCTYPE svg PUBLIC "-//W3C//DTD SVG 20010904//EN"
 "http://www.w3.org/TR/2001/REC-SVG-20010904/DTD/svg10.dtd">
<svg version="1.0" xmlns="http://www.w3.org/2000/svg"
 width="512.000000pt" height="512.000000pt" viewBox="0 0 512.000000 512.000000"
 preserveAspectRatio="xMidYMid meet">

<g transform="translate(0.000000,512.000000) scale(0.100000,-0.100000)"
fill="#000000" stroke="none">
<path d="M806 5105 c-59 -21 -108 -65 -139 -126 -27 -51 -28 -59 -23 -139 3
-47 9 -99 12 -115 l6 -30 -78 -13 c-226 -35 -421 -214 -479 -439 -12 -47 -15
-150 -15 -576 l0 -519 -40 -45 c-22 -25 -42 -59 -45 -77 -3 -17 -5 -398 -3
-846 l3 -815 28 -57 c35 -72 97 -134 167 -167 79 -37 201 -37 280 0 77 36 121
77 161 151 l34 63 3 835 c2 588 -1 843 -9 861 -6 15 -24 39 -40 55 l-29 28 0
498 0 499 25 24 c21 22 33 25 103 25 62 0 83 -4 93 -17 8 -9 37 -27 64 -39
l50 -24 598 0 597 0 0 -175 0 -174 -483 -3 -482 -3 -66 -32 c-126 -62 -218
-187 -240 -324 -6 -43 -9 -423 -6 -1085 3 -890 6 -1029 20 -1099 87 -431 324
-776 682 -995 133 -82 289 -142 467 -182 82 -18 136 -21 472 -25 253 -3 412
-1 479 7 646 75 1141 539 1274 1195 14 70 17 209 20 1099 3 662 0 1042 -6
1085 -22 138 -112 261 -238 323 l-68 33 -482 3 -483 3 0 174 0 175 598 0 597
0 50 24 c28 12 56 30 64 39 10 13 31 17 93 17 70 0 82 -3 103 -25 l25 -24 0
-499 0 -498 -29 -28 c-16 -16 -34 -40 -40 -55 -8 -18 -11 -273 -9 -861 l3
-835 34 -63 c40 -74 84 -115 161 -151 79 -37 201 -37 280 0 70 33 132 95 167
167 l28 57 3 815 c2 448 0 829 -3 846 -3 18 -23 52 -45 77 l-40 45 0 517 c0
437 -2 526 -16 578 -58 225 -253 404 -477 440 l-79 12 6 30 c3 16 9 68 12 115
5 80 4 88 -23 140 -31 61 -92 113 -151 130 -25 6 -599 10 -1747 10 -1428 -1
-1716 -3 -1749 -15z m3485 -184 c10 -13 19 -37 19 -55 0 -17 -23 -148 -52
-291 -43 -215 -56 -264 -74 -282 l-23 -23 -1601 0 -1601 0 -23 23 c-18 18 -31
67 -74 282 -29 143 -52 273 -52 288 0 37 16 66 43 77 13 5 754 8 1720 7 l1699
-2 19 -24z m-3583 -448 c6 -27 14 -65 17 -85 l7 -38 -53 0 c-96 -1 -185 -58
-225 -145 l-24 -50 0 -497 0 -498 -85 0 -86 0 3 523 3 523 38 76 c68 139 210
235 349 237 l46 1 10 -47z m3916 3 c89 -44 155 -111 199 -204 l32 -67 3 -522
3 -523 -86 0 -85 0 0 498 0 497 -24 50 c-40 87 -129 144 -225 145 l-53 0 7 38
c3 20 11 59 17 86 l10 49 65 -6 c47 -3 85 -15 137 -41z m-1809 -551 l0 -170
-255 0 -255 0 -3 160 c-1 87 0 165 2 172 4 11 57 13 258 11 l253 -3 0 -170z
m1130 -364 c51 -23 118 -96 136 -147 12 -32 14 -217 14 -1064 0 -1133 1 -1103
-65 -1302 -127 -379 -432 -685 -810 -811 -179 -59 -209 -62 -660 -62 -450 0
-475 2 -657 61 -374 122 -686 433 -813 812 -66 199 -65 169 -65 1302 0 1161
-6 1080 81 1160 81 75 -37 69 1454 69 1282 1 1347 0 1385 -18z m-3435 -1361
c0 -767 -1 -792 -20 -829 -48 -95 -176 -119 -257 -48 -66 58 -63 17 -63 882
l0 785 170 0 170 0 0 -790z m4440 5 c0 -865 3 -824 -63 -882 -81 -71 -209 -47
-257 48 -19 37 -20 62 -20 829 l0 790 170 0 170 0 0 -785z"/>
</g>
</svg>
