<?xml version="1.0" standalone="no"?>
<!DOCTYPE svg PUBLIC "-//W3C//DTD SVG 20010904//EN"
 "http://www.w3.org/TR/2001/REC-SVG-20010904/DTD/svg10.dtd">
<svg version="1.0" xmlns="http://www.w3.org/2000/svg"
 width="512.000000pt" height="512.000000pt" viewBox="0 0 512.000000 512.000000"
 preserveAspectRatio="xMidYMid meet">

<g transform="translate(0.000000,512.000000) scale(0.100000,-0.100000)"
fill="#000000" stroke="none">
<path d="M595 4124 c-103 -37 -165 -131 -165 -250 l0 -72 -122 -4 c-101 -3
-130 -8 -163 -25 -47 -25 -95 -74 -121 -123 -18 -34 -19 -84 -19 -1260 l0
-1225 22 -41 c31 -58 97 -112 161 -130 44 -13 100 -15 320 -12 240 4 273 6
332 26 65 22 141 67 193 116 l28 26 623 0 c381 0 644 4 677 10 65 13 123 41
166 83 l33 31 33 -31 c43 -42 101 -70 166 -83 33 -6 296 -10 677 -10 l623 0
28 -26 c52 -49 128 -94 193 -116 59 -20 92 -22 332 -26 220 -3 276 -1 320 12
64 18 130 72 161 130 l22 41 0 1225 c0 1176 -1 1226 -19 1260 -26 49 -74 98
-121 123 -33 17 -62 22 -162 25 l-123 4 0 72 c0 122 -63 216 -170 251 -40 13
-162 15 -951 13 l-905 -3 -52 -27 -52 -27 -52 27 -52 27 -911 2 c-770 1 -916
-1 -950 -13z m1856 -183 c18 -22 19 -43 19 -366 0 -339 0 -342 -23 -376 -12
-18 -38 -44 -56 -56 l-34 -23 -822 0 -822 0 -33 23 c-18 12 -43 35 -54 50 -20
27 -21 42 -24 365 -2 185 0 347 3 359 13 54 -13 53 943 50 l884 -2 19 -24z
m2029 14 c16 -9 32 -25 35 -38 3 -12 5 -174 3 -359 -3 -323 -4 -338 -24 -365
-11 -15 -36 -38 -54 -50 l-33 -23 -822 0 -822 0 -34 23 c-18 12 -44 38 -56 56
-23 34 -23 37 -23 373 0 221 4 346 11 359 6 11 20 24 32 29 12 5 413 9 890 9
757 1 872 -1 897 -14z m-4050 -530 c0 -249 10 -286 99 -376 86 -85 132 -99
332 -99 l159 0 -2 -777 -3 -778 -26 -50 c-33 -62 -100 -129 -154 -155 -70 -34
-144 -41 -386 -38 l-231 3 -24 28 -24 28 0 1180 0 1181 29 29 c29 28 32 29
130 29 l101 0 0 -205z m4491 176 l29 -29 0 -1181 0 -1180 -24 -28 -24 -28
-231 -3 c-242 -3 -316 4 -386 38 -54 26 -121 93 -154 155 l-26 50 -3 778 -2
777 159 0 c200 0 246 14 332 99 89 90 99 127 99 376 l0 205 101 0 c98 0 101
-1 130 -29z m-2466 -2181 c-23 -45 -64 -77 -111 -89 -28 -7 -237 -11 -610 -11
l-566 0 8 27 c4 16 10 381 13 813 l6 785 600 5 c517 4 605 7 635 21 l35 15 3
-768 c2 -671 0 -772 -13 -798z m870 1530 l600 -5 6 -785 c3 -432 9 -797 13
-812 l8 -28 -566 0 c-370 0 -582 4 -609 11 -50 12 -78 34 -106 80 -21 34 -21
42 -21 806 l0 772 38 -17 c33 -15 101 -18 637 -22z"/>
<path d="M369 2751 l-24 -19 -3 -462 -3 -461 30 -29 c31 -32 59 -37 94 -18 47
25 46 18 47 499 0 447 0 457 -21 483 -26 32 -84 36 -120 7z"/>
<path d="M369 1551 c-26 -26 -29 -36 -29 -90 0 -80 12 -109 54 -126 72 -30
116 14 116 116 0 82 -5 96 -41 114 -42 22 -67 18 -100 -14z"/>
</g>
</svg>
