<?xml version="1.0" standalone="no"?>
<!DOCTYPE svg PUBLIC "-//W3C//DTD SVG 20010904//EN"
 "http://www.w3.org/TR/2001/REC-SVG-20010904/DTD/svg10.dtd">
<svg version="1.0" xmlns="http://www.w3.org/2000/svg"
 width="512.000000pt" height="512.000000pt" viewBox="0 0 512.000000 512.000000"
 preserveAspectRatio="xMidYMid meet">

<g transform="translate(0.000000,512.000000) scale(0.100000,-0.100000)"
fill="#000000" stroke="none">
<path d="M595 4894 c-103 -37 -165 -131 -165 -250 l0 -72 -122 -4 c-101 -3
-130 -8 -163 -25 -47 -25 -95 -74 -121 -123 -18 -34 -19 -84 -19 -1260 l0
-1225 22 -41 c12 -23 41 -58 65 -78 65 -56 114 -66 325 -66 l182 0 3 -643 c3
-634 3 -643 25 -689 30 -66 96 -133 162 -165 l56 -28 761 -3 c750 -2 763 -2
817 18 69 26 150 97 182 160 13 26 29 76 35 111 6 40 10 330 10 761 l0 697 48
-22 c47 -22 52 -22 704 -25 l658 -3 27 -26 c52 -48 128 -93 193 -115 59 -20
92 -22 332 -26 220 -3 276 -1 320 12 64 18 130 72 161 130 l22 41 0 1225 c0
1176 -1 1226 -19 1260 -26 49 -74 98 -121 123 -33 17 -62 22 -162 25 l-123 4
0 72 c0 122 -63 216 -170 251 -40 13 -162 15 -951 13 l-905 -3 -52 -27 -52
-27 -52 27 -52 27 -911 2 c-770 1 -916 -1 -950 -13z m1856 -183 c18 -22 19
-43 19 -366 0 -339 0 -342 -23 -376 -12 -18 -38 -44 -56 -56 l-34 -23 -822 0
-822 0 -33 23 c-18 12 -43 35 -54 50 -20 27 -21 42 -24 365 -2 185 0 347 3
359 13 54 -13 53 943 50 l884 -2 19 -24z m2029 14 c16 -9 32 -25 35 -38 3 -12
5 -174 3 -359 -3 -323 -4 -338 -24 -365 -11 -15 -36 -38 -54 -50 l-33 -23
-822 0 -822 0 -34 23 c-18 12 -44 38 -56 56 -23 34 -23 37 -23 373 0 221 4
346 11 359 6 11 20 24 32 29 12 5 413 9 890 9 757 1 872 -1 897 -14z m-4050
-530 c0 -249 10 -286 99 -376 86 -85 132 -99 332 -99 l159 0 -2 -777 -3 -778
-26 -50 c-33 -62 -100 -129 -154 -155 -70 -34 -144 -41 -386 -38 l-231 3 -24
28 -24 28 0 1180 0 1181 29 29 c29 28 32 29 130 29 l101 0 0 -205z m4491 176
l29 -29 0 -1181 0 -1180 -24 -28 -24 -28 -231 -3 c-242 -3 -316 4 -386 38 -54
26 -121 93 -154 155 l-26 50 -3 778 -2 777 159 0 c200 0 246 14 332 99 89 90
99 127 99 376 l0 205 101 0 c98 0 101 -1 130 -29z m-2451 -2240 l0 -1628 -22
-33 c-13 -18 -36 -43 -51 -54 -28 -21 -33 -21 -776 -21 l-748 0 -35 27 c-71
54 -68 26 -68 716 l0 619 68 22 c154 50 278 173 335 334 8 23 13 263 17 817
l5 785 600 5 c533 4 604 7 635 22 19 9 36 17 38 17 1 1 2 -732 2 -1628z m855
1589 l600 -5 6 -785 c3 -432 9 -797 13 -812 l8 -28 -566 0 c-370 0 -582 4
-609 11 -50 12 -78 34 -106 80 -21 34 -21 42 -21 806 l0 772 38 -17 c33 -15
101 -18 637 -22z"/>
<path d="M369 3431 l-29 -29 0 -412 0 -412 29 -29 c40 -40 93 -36 128 10 18
23 18 839 0 862 -35 46 -88 50 -128 10z"/>
<path d="M369 2321 c-26 -26 -29 -36 -29 -90 0 -80 12 -109 54 -126 72 -30
116 14 116 116 0 82 -5 96 -41 114 -42 22 -67 18 -100 -14z"/>
</g>
</svg>
