<?xml version="1.0" standalone="no"?>
<!DOCTYPE svg PUBLIC "-//W3C//DTD SVG 20010904//EN"
 "http://www.w3.org/TR/2001/REC-SVG-20010904/DTD/svg10.dtd">
<svg version="1.0" xmlns="http://www.w3.org/2000/svg"
 width="512.000000pt" height="512.000000pt" viewBox="0 0 512.000000 512.000000"
 preserveAspectRatio="xMidYMid meet">

<g transform="translate(0.000000,512.000000) scale(0.100000,-0.100000)"
fill="#000000" stroke="none">
<path d="M1810 5111 c-69 -22 -131 -74 -166 -141 -27 -51 -25 -162 3 -216 24
-45 89 -108 122 -119 20 -6 21 -12 21 -185 l0 -178 -82 -42 c-116 -59 -288
-175 -390 -265 -200 -175 -388 -439 -491 -687 l-16 -38 -150 0 -151 0 0 24 c0
70 -60 162 -133 202 -44 24 -63 29 -122 29 -80 -1 -130 -22 -181 -77 -74 -78
-69 -17 -69 -858 0 -755 0 -755 22 -795 25 -47 74 -96 123 -121 51 -27 162
-25 216 3 45 24 108 89 119 122 6 20 12 21 185 21 l178 0 42 -83 c59 -115 175
-287 265 -389 175 -200 439 -388 688 -491 l37 -16 0 -149 0 -149 -39 -6 c-80
-10 -153 -64 -194 -141 -30 -57 -30 -165 0 -221 25 -47 74 -95 123 -121 33
-18 73 -19 790 -19 717 0 757 1 790 19 49 26 98 74 123 121 30 56 30 164 0
221 -24 45 -89 108 -122 119 -20 6 -21 12 -21 185 l0 179 91 45 c189 96 402
261 544 424 125 143 258 356 328 524 l16 38 149 0 149 0 6 -39 c10 -80 64
-153 141 -194 57 -30 165 -30 221 0 47 25 95 74 121 123 18 33 19 73 19 790 0
717 -1 757 -19 790 -26 49 -74 98 -121 123 -56 30 -164 30 -221 0 -45 -24
-108 -89 -119 -122 -6 -20 -12 -21 -185 -21 l-179 0 -41 83 c-138 274 -365
529 -632 708 -81 55 -262 152 -332 179 l-26 10 0 148 0 149 39 6 c81 11 152
62 194 141 28 54 30 165 3 216 -25 49 -74 98 -121 123 -40 22 -42 22 -780 24
-407 1 -751 -2 -765 -6z m1491 -190 c17 -18 29 -40 29 -56 0 -16 -12 -38 -29
-56 l-29 -29 -712 0 -712 0 -29 29 c-17 18 -29 40 -29 56 0 16 12 38 29 56
l29 29 712 0 712 0 29 -29z m-231 -432 l0 -121 -26 6 c-334 84 -671 82 -984
-5 -41 -12 -80 -23 -87 -26 -10 -4 -13 24 -13 131 l0 136 555 0 555 0 0 -121z
m-211 -250 c367 -62 738 -271 982 -552 355 -409 497 -948 388 -1475 -89 -434
-363 -837 -734 -1078 -791 -513 -1832 -299 -2356 484 -379 566 -379 1319 0
1884 135 201 281 347 481 480 365 242 798 332 1239 257z m-2548 -938 l29 -29
0 -712 0 -712 -30 -30 c-26 -25 -36 -29 -63 -24 -18 3 -42 17 -54 32 l-23 25
0 710 0 711 29 29 c18 17 40 29 56 29 16 0 38 -12 56 -29z m4610 0 l29 -29 0
-711 0 -710 -22 -25 c-13 -15 -37 -29 -55 -32 -27 -5 -37 -1 -63 24 l-30 30 0
712 0 712 29 29 c18 17 40 29 56 29 16 0 38 -12 56 -29z m-311 -696 l0 -555
-121 0 -121 0 6 26 c84 334 82 671 -5 984 -12 41 -23 80 -26 87 -4 10 24 13
131 13 l136 0 0 -555z m-3864 439 c-84 -334 -82 -671 5 -984 12 -41 23 -80 26
-87 4 -10 -24 -13 -131 -13 l-136 0 0 555 0 555 121 0 121 0 -6 -26z m2414
-2399 l0 -135 -555 0 -555 0 0 121 0 121 26 -6 c209 -53 432 -73 620 -57 144
12 291 39 389 70 33 11 63 20 68 20 4 1 7 -60 7 -134z m142 -335 c25 -26 29
-36 24 -63 -3 -18 -17 -42 -32 -54 l-25 -23 -710 0 -711 0 -29 29 c-17 18 -29
40 -29 56 0 16 12 38 29 56 l29 29 712 0 712 0 30 -30z"/>
</g>
</svg>
